<mxfile host="app.diagrams.net" modified="2023-06-19T04:29:57.356Z" agent="Mozilla/5.0 (Windows NT 10.0; Win64; x64) AppleWebKit/537.36 (KHTML, like Gecko) Chrome/114.0.0.0 Safari/537.36" etag="Vf1SGzrZFv8d6r3c3RiI" version="21.5.0" type="google">
  <diagram name="페이지-1" id="4Af0eUFoIvQhLM5XNjUE">
    <mxGraphModel grid="1" page="1" gridSize="10" guides="1" tooltips="1" connect="1" arrows="1" fold="1" pageScale="1" pageWidth="827" pageHeight="1169" math="0" shadow="0">
      <root>
        <mxCell id="0" />
        <mxCell id="1" parent="0" />
        <mxCell id="toXp25n7A9kxLXInQJBA-26" value="" style="rounded=1;whiteSpace=wrap;html=1;" vertex="1" parent="1">
          <mxGeometry x="230" y="234" width="700" height="120" as="geometry" />
        </mxCell>
        <mxCell id="toXp25n7A9kxLXInQJBA-27" value="" style="rounded=1;whiteSpace=wrap;html=1;" vertex="1" parent="1">
          <mxGeometry x="230" y="417" width="700" height="120" as="geometry" />
        </mxCell>
        <mxCell id="toXp25n7A9kxLXInQJBA-25" value="" style="rounded=1;whiteSpace=wrap;html=1;" vertex="1" parent="1">
          <mxGeometry x="230" y="50" width="700" height="120" as="geometry" />
        </mxCell>
        <mxCell id="toXp25n7A9kxLXInQJBA-24" value="" style="rounded=1;whiteSpace=wrap;html=1;" vertex="1" parent="1">
          <mxGeometry x="223.81" y="-130" width="700" height="120" as="geometry" />
        </mxCell>
        <mxCell id="toXp25n7A9kxLXInQJBA-1" value="" style="sketch=0;outlineConnect=0;fontColor=#232F3E;gradientColor=none;fillColor=#232F3D;strokeColor=none;dashed=0;verticalLabelPosition=bottom;verticalAlign=top;align=center;html=1;fontSize=12;fontStyle=0;aspect=fixed;pointerEvents=1;shape=mxgraph.aws4.user;" vertex="1" parent="1">
          <mxGeometry x="543.5" y="-270" width="48" height="48" as="geometry" />
        </mxCell>
        <mxCell id="toXp25n7A9kxLXInQJBA-3" value="" style="outlineConnect=0;dashed=0;verticalLabelPosition=bottom;verticalAlign=top;align=center;html=1;shape=mxgraph.aws3.android;fillColor=#FFD44F;gradientColor=none;labelBackgroundColor=none;" vertex="1" parent="1">
          <mxGeometry x="393.12" y="-122" width="73.5" height="84" as="geometry" />
        </mxCell>
        <mxCell id="toXp25n7A9kxLXInQJBA-4" value="Python" style="rounded=0;whiteSpace=wrap;html=1;" vertex="1" parent="1">
          <mxGeometry x="383.25" y="-38" width="93.25" height="20" as="geometry" />
        </mxCell>
        <mxCell id="toXp25n7A9kxLXInQJBA-5" value="" style="image;aspect=fixed;html=1;points=[];align=center;fontSize=12;image=img/lib/azure2/databases/Azure_Database_PostgreSQL_Server.svg;" vertex="1" parent="1">
          <mxGeometry x="543.88" y="60" width="48" height="64" as="geometry" />
        </mxCell>
        <mxCell id="toXp25n7A9kxLXInQJBA-6" value="" style="sketch=0;outlineConnect=0;fontColor=#232F3E;gradientColor=none;fillColor=#2E27AD;strokeColor=none;dashed=0;verticalLabelPosition=bottom;verticalAlign=top;align=center;html=1;fontSize=12;fontStyle=0;aspect=fixed;pointerEvents=1;shape=mxgraph.aws4.rds_sql_server_instance_alt;" vertex="1" parent="1">
          <mxGeometry x="308.12" y="65" width="57" height="57" as="geometry" />
        </mxCell>
        <mxCell id="toXp25n7A9kxLXInQJBA-8" value="PostgreSQL" style="rounded=0;whiteSpace=wrap;html=1;" vertex="1" parent="1">
          <mxGeometry x="520.88" y="124" width="93.25" height="20" as="geometry" />
        </mxCell>
        <mxCell id="toXp25n7A9kxLXInQJBA-9" value="ElephantSQL" style="rounded=0;whiteSpace=wrap;html=1;" vertex="1" parent="1">
          <mxGeometry x="290" y="124" width="93.25" height="20" as="geometry" />
        </mxCell>
        <mxCell id="toXp25n7A9kxLXInQJBA-10" value="" style="shape=image;verticalLabelPosition=bottom;labelBackgroundColor=default;verticalAlign=top;aspect=fixed;imageAspect=0;image=data:image/png,iVBORw0KGgoAAAANSUhEUgAAAP8AAADGCAMAAAAqo6adAAAA8FBMVEX8/v/lJxMeMTX///8AMjbnJxLpJxEbMTUbLzPrJRAZMTUTMTYAHSMZLjIAGyEAHiQAIicTKi8LMjb39/cADhYMJyyFiIkAGB4AFBsqMDXeIRY+S0yZmprDxcVxKS4kNTkAAACMkpI2LzQ3P0BBREPx8fEmMDVGLjNRLjLj4N8/LjN+KCzJIR1WLTGRJinU09K3trVfKzC3IyGlJCXYIBhmaGenp6Z7KSysIyRoKi+HJyvGIh6aJSfRIBu8IiDb29pQVlZ7fn5gZGQAAA++vr1xdXQwP0GVJiiwr66hoaBIVFU5RkhsaGQ4OzpcZ2dlLS/hqLXgAAAgAElEQVR4nO1deUPiTNKXdAI5CCSBCKLoeKDihQdeKAIOOKjv7Hz/b/N29ZF0kk5IZn1299md+mMPJyT9666uu7rX1v7QH/pD/xJCCP27h/DvJLS76P0PTwBatpzDQWIC/leYAnVbumLX1mNw0fy1/78wAWhS0xVM9c+JABc1Zi3fufsrWQCt9f6S1zaKPd7bsRVCbj2Ei/qbjqLorb+OBRAaTA++/uUIrW8WeSvq6a7CSK9NqRhE6K5JJ8Vtv/8lLADo226t+9XvRr1pvTnJ/1bU2AzgY/LtOYI/3taCP9WmX84CWLBefrTwd93FF78adX1X8We534oab74ikt5eNFBXF//oNr+WBRDqb/lVOuutL1W7CO1iSa7obupb4yK+/+aydQ/gOpvrNVuJUPXrWAAPYP7qODr/2PsX4kf9z3rWW/G3L98boowHbiEAtz6cAK0d5QjCArUvYQHM94N1tyZsOPvzy/AjtFVl66Yrkrci1NvaqdWVOz4D+Actug7VXdRY1BKo4U1sgr5ACiDUGOy+1Xw98gEnaXb95tsHB/XgrbV5/K0ITWZ1YDu9rmMeACHXf63Sp/1X+L/vrZDrXYbaViZTxhhu+5+zBXrz2U5b2GYVk357/Uvwo94M5KliqnSwr7F9jrqvVT7zuuO/9xBa8qV19wlHoIHNGdN5fSUiQPcnCC3YLMmlAOK0aoDv3yMr75nnFpnhn1+yr+7oplVPHjzKABFTDnWxrhW52nF3py0+HVX2LOp9UA5qzRCa79R15XuXMEaTPel/oAhktNbo9Sfd+fxyudVtZM8BeneEAXjq/djYIBzQ/qc3AJZq+3UYYkU91YwrMq2CCoR/FkUOBe0Hf2lfBjYfmrVg7rYQEQ5uc0nxdl3Ktkysdrd212ez1wPFdxynClSvO9Xa7bKfMQXoLsTvedtDQyvfqF+wAcCU2KQ71/MejFL5jO6AVoP/O//nFHJEYwEtm+73JWOH/pILyolC3lAn/I8+aj4m19ajksx16h/r3bStgLa4VvHU7bGhlTDtAQPYn/8U+t77IZX6FfWqU8YvZQyATXmKfieuzKPkbkZfOPnshuwQ/LWxowdCBc2S+pGR7dear3cT2VZACzeGvmRQBqgW3ADs3TDRjfnCZaaEpzzQ15avyVtt7ATgff+RjV7RmzGZhn8l+WTPxV+p0Y2CtpysN7pOdX922Y/zATqAgZgh+lJJK5kV/DdntxB+1J30QJf2Bne3fs2l6C31niw+ee0JlStd8DBE9EzjROEv83wcLbFg1N8aVOpd1hPvibNBvXmwPu+Jc9AA88LcC9EDA5yCsLb3i+GftXfepp9vStVh4PGsnp+F7zWeCQO4/5hVI1LP3DhXYzPg1+5yfRstMMvbH91udzAYTOar8NM5qLqb6/M+VxVk0tRnoySQ9kSUVZwFV4xl19FtWxA+lnr0Is6qNrQqdASRAXl7Q+NhwxMXvz3L6X3QzWtXa7Vaq9UK4VdM0/JUTKZKvxkhHc9B6+ft7t3l5R2RGRWvU4qQQVi1mA9AeDFcVM+7ejHK0bf+spLroZ53tFK5dB+ygL7Ty2vQceEVfaNqHe4dPY6er886pZdtRZV8FU+a6ztYPZK18O6NGP4RrIc7LYS/S+yxCp58PPd7o3EMPZaAD2p8FFg5lIBFNONpL/hHZyvvd6Ui7+Fp3DEwlcuappWNzs25Gt9fsUF4Yy02UrJVM9xV2VgGYKNUKnjyry7ODCP2SkKVCDOanmqd8ufK2mkwymbCS0j9ZtI5Ul+in8ZTMPxx5HnpU6BexJafr1Q17zjIWPptDOl8OB6W5OCjG6DiqRun10Phy8bLIZMCurtC8vS4FY1cPYHmOc53mLvKZxd7asoUWEeJ0Wov1AQsEgVCPbz+5pGBmU4KviRuAFPduH/CLBp5tNx5ZP/uZqse1OfqAd0lZL51FV9NOgXG2cWRJ5EF1sYwiZ8aq3FvbQXZOlakso8Hr6UaAC/90UMnIR5gkBcq3SER47fR57i5Rdb74P9MDMAImUfJF7O3a+NnLAs8U+ADUz0aSgYypPiLCUCwpNQM+HiFj02M3tw+k4AnZFwzIdAKt56w2v/H/9jkkinqvtEN0EllQCwLStej4z1QjR6Qunch3asdaqsW8oHRFCsjNclMIryRqiqjYRp6eOKFKmzdF2QvXwZ0yz3ig8AF6rUT+OPSPD4F5c746eVhdH9/f/HSSeFX7zfw37rSjwtgy9eVH50U4cgngLoJNPbDJ5aJQ7TLfFI0CwQEeo2bAOpD+vTySQDFCJQ6lN+IgaB1bEyoT7FXasb1hTCeFehhAi7oBNQCDwCtM4MAXX5naZDLb1wUkK9GyLtYiX8laRvAhXox/GCMqNeRj2vG2dVRaRXk2AQ8etEdgC4d7vl/oz4Z6vlTPiV2XAB6oywZnBM/CQEorUL4IZKi3oT4tXL57Jd6la4PU77doR8PtC/qN7nv/+nQrYAWxEGE6HDCAPBOvwx/rRD+eRWYz+DgseV5rKqjlQyfoPITCxVx1Ojtlq32eotOChp8x+yBuvuSkMe/Df+gSpkPhIs2fnjESkZ5+J2xYDVBxA8Xcmj2nS17r8kUI1rUbvuLtiyI8oX8Xwx/36eu1PDp5vTIUi3s/g/Th6Kli1+NRuBYrAxcq+aCC/66QsQC5AcdebwrJoJWAM3E3y6SsUc9LIoqGyfEuDAhrvGQzvtlYzzaG5VSRspiZfoO/77dZsve2wHJh1D/Ni3Y5x0XEf/DjvTPv4Of2qJhMMtMQwfor88tz1RPntI8JTFYCvvesZnm6zaxbdyf+SnwwZ4tIHC0J9FboEYB+Y/fwY8+bQiuuH6dRALUl7TVLT+cUEfEFMKD0XFRT0HXGeq+w+0htHSdg3iyjlAF+9Pq8U25kLw1TpjCAnn99DB6PD/aw3RM3ZCC+Kf1atV+u9267IJbbp1LN79mPB2H8QgvZZMwK4jHYNHMr94B36P+u60kpF4Fol3m3vbNsFzQ9jFGG/BfeDv+OD/E+9YyKdH3tgvVAaGt3fmABFcbZH0StiD5Uuc+4oRGY6TCcwpZgjYX/K7d6q8NtqbfPt6iaw+rvnF+f/MyjPvTeaj8gs3lsvZwjqEnI4XtYlUQQVyZGuXWdpIBjKdIqBPIUh+HyRlgWSh3k2bF0cS1lZ3m98353I/++OT0YYzXryxg14DKhAxK2PBOYYyOum1c78ljhAXx85Byj8clk56o8SwLxXnWvURoMSvwljBUd+H6rdpsQJSMyDwv5ciqA2CtMxw/PV1fPzw8/xid3v/6dX5+dLTxQy5qjaO9+9TwYBH8aK3X677v3r45r4jFJeOhKK18n4iAEqqIZjMf2Igyiq+/Lg6a31qfM0jl9g4Edw+ER+x3D0cKce1VSp5nEcI7Wj2WBDrwZ7Y9+doDtfJnANDlpt+uOr6r2zuIxYLjoRhjO4XPsKhI4v8RRAP9/ctun7BX7yDkflAeiQ1WNoYv9xVZ1F+xdJkxSkO9AumQxSCJDF1v5U0BorVZM2BMp0FMYYB1JvKcca8+b8snwEvyv3EccqW/IPmaxjLMjivWxovcuMRb4PrKi0sZBbhsOykFtOsQv+7Xa467s0/Jdd1vOfFDcV/4HafHd6knRpaNZ+vMkOOvWMkQ5Fh80q9P17cWb9Vw73snUnbmU3AmZTV17yw+Z+F33Kq7WA4mvV6DUq/fG+Rc/YErBmHqeNZoWNI8Cj+nvRx3yin4xec4hB9RvrR9R4x1s7xJKmnG+DEp1kxVjYtBbXhI90rrtosSlA9+tx6xSOqXCL3Rv1iCBhjhEafg95KaklmgKaQ+rnSrNePlJLa1rV83lnoeFRrc13LmFHGjJ1CjES9MlMFftqIWSX2JeFROfYkOMwV/UvxrT3JNwZ7P5eKXyxfRTWA9Gp2LDTUqBpmcqXbRWmM+m9abAvnuz4NViXh0144Z48474lG5WGI5Ff9ZwlBIEZT08Xi+Mo2MsyNxGrFBphmll9OHiFR+tIJBN/1oMBWrACivy4bfjA/PX0e8qibO2HJY5l584NpQlWgwDv9XbjtXK58KL6KRkXJ06xj3RFW42M6aV2Wfa2ZNAGb+xA/8BTeAEskoOX6JoYzN37QJ8K4KmPmacR2m/aSRIWZn6YcITeQFNO30LUA6VOLk/gPxqrJ8+GURmyATlICfFk9OSTwa4z1uC0iszID/wdZtvEncami2SOsGQANH8oui+CuWbDsL4xbJksGHvFZnPBx2ShIfsFw69tLxB4IWC0A0lRdl6SnFwKhhy34g4n9chR9zZ0rAFtLBCRawNpJmD9b1z9snG9jM3zg5H92M43FFTaMZBWlmyDhmIwIBuJsSVbLthmwC0Kv0eSL/KP44tDj+ijo6txLlFwGuhw1BCpAgx8lZ0lF4OVZVi5SskdITdWMU86e1Eg0mSPCXA/O3fptRQebLMuFoSyovRfkf8QA7w7j951k3xqMal36hK1/uXATunHf4ePEy1BKGgnYat3RN1RxFZIHWoU9I5AwrysN7fNGTJVM5VZM1OWiS0HyUBE6KfvHh6v4k5GjTU7eHhnESjxKUXy6CLKFmGE83F6ej5wcS3kkKfq10nDCUDjcwn4wjaVc1BT+Lsih2Hcy/tTT+xyTpXfpIKeGE5rwFwx8JgZU7N8cWibFZFmbT07GhYUUf80qxQaoq22H1FAnKQi1THDp9+DwpJK2b60fVEjxKFk2W4NcOyXq4OxgdGuxnFJDaH/Hlv5M2ZijU/p9SQ8qKhtehFulh9Ov8/Hz7+UmDRS7fxIUfpD8rnnp1nUPJa2UJfCxUxsZwdBQ+xQoPkwFJVpLpH0DUciuzHFupRasBUU8Wg6b4u9z/qWwkJDssJ8TlGCtrcdnHhqRYkjqmBBnbUi/BPAGdEEw9jyQlogxah5T6Q59FpLNOSpGKDFLumfZkvY8Q9X/ltUjRMcQQBfI4NX2QnKsEQUWb8GK2/BU1zmrk97YO9ZbTzOJpoEg9dMbyQ/yjoSTjH3nIeOEKr3KYXsbDqJzuI4plOLygAru/sdFoRC3WBnj1p+mSj1OEASR1R+FzDTRh4m91KUoMfhC4s85X/VTT0kMEwsRrpQ32WHw0VPjX8bKiHPCj9cCN/VRhYR8g1KWbKbsUKQn/Gq++mUAgQBZNu2BdJYQlQPAY3yTmRkwYk8gH6UeYrWR+Amw/SIexAK+U3AU3pOJfzCaNAFKZhSBJHhmjveNRyNidw3QXWZh5gz8Wt0WpVVDDin+eavZEqRq2oKT3mij+Lg9/pGQA5VTuXKnYdHsuEZUs9YlOLDOMlCQC11H83NXhFk6SGQ1odLM/EW0iyUNC81ai7FKYJTyjt0T9F6jEwH76oad4yrVBl8W8SgT4tLGK5VWw/mJ8PEn801qJW5zmcczOGoJWhFhduiaLkX7Il7+fwTEtbEuRppr8lRg0WltRz8G5M0iSyLuKh6ohIhzua62TtfwBfmH5ZdIPZHojXZPFqc0LEe/Sp0zfaaAe9Qyyi0HDkRjjU8+rqMoNW3Mi1y31JuY7PlqKGdRqZwdIA/wGF/7mXrzHA4xicNXnKwwfgZw7tHL7u1Mu/uVxjShpWKRfb6se+Gw8MM30eiVWl29gF9cMilskzRQS/HiR9yqRCQk+TPjH2UJZWOLEBQA376XP7HLvX5b/FpFjS1gbvtxvQKLy6KYUPsw1W2QCyH4NDcps8Rdw+57H5inhZZK/g9u3md2JJ1JQEP6W/huII9Hof7b1N365udg+IZ7943OsWUajQRlLFCAkUWcFkW/jQhYdC/ETYY83ya8SwZ/IsNAet1o3LegnJfuNWT8Zv2nj7Z/MfiXp5fn5x4/n55trSd2GNvYqoAM2BI+FyKtQh2fjZ3ICM9KZQZ7z4hkGml9qDTD+/Ouvv1ELqJeu/mD791lUNL0SnxZgkwoNqWNPWlDVm7HgQBEvzgvyKYFTJyX1B3nOOD83jCNT4ohp1HoCZr1N38sJ/Du9Vfh1pRdE/6TmPwAvDYcQrTXS+cP45WET0Bh7wQ4gobMwnwT8W0kzACss7mBYZxr9Xby+gKkPCNXNkxmMfwI/KVhp0C7IRF8dgB/f3B/tHWJT53Dv6Dm1RFDrWBU86PI4CGOQ5ilVXH/zaCNlApjg1IbY5gFGSRqiZdrhBL2za+muzO/ghwZfZlKZ8VJM6EQjDTh45SoV01Q3kuFc/uiDWrHOyuXhkP/hPIIfNNtRigywjuim0s4w94DcSMYSeEgQzP9lui+Tgj9TZrqvIAHI/4waQOXOqRWL6JtW+gQ8WthmCaVDDD+2hi/UsdQFqoSWvkZ62bzHxEbj5gNx/zbzSgAu/0ilZyq1+lwDRtLfxoMCoezYBKSGOaAHSxw44X/vRygPT05Pn2VGUEW9FuFqZ6qkuiYwn4ABBimB7ATxU3GkfbcBOdgCWhIGiBhd297G+f3ox1V0AiSlDyEDiGqLyLFQ/2MEpjEyHhMTYEbhY0niPSc/wfY/OPWkvDgffn4sVmqiiL5ykztIotzpPEF2zjBuYiOWVomSIcLGDTUIUfhiPs04ejBK2nnsdd5hvCxKu5HMMHR40r1Th8xGThvA5+W4g0yd0Z6wVGLFFA1Y2un8EhtwapAAVJTAQIRjRYmqdY7AfYgkCU31MVniJZMw2vBQobF/pYq366SeywgM6uF6mT4TJEAohyTMLiy3zJjMShZ/sCfPVFGDgvsv+H+A6wnkHIgVi4RMTE89us7bbmPsqS8eGQkY9WiZKwRU4/XQya47kSACRmspJBZQJx61TFoJDB5ecDFmRSxWMa1TosqhbFw/gh9xeDRK7SuV4B+pQyYDSQR0luPwiLAfOHrYQZz0nTWmASWp7UTcJuGZ8wexhSdm7InFKykUhRkojc/OhuUirVbYnbpmfUbgBaXlsiNUD1sSM8L/mPw+WiMPJCygoN5GoJRMBwh80QEkYYE0n1LLaDuX/6B0eGEY20GrIWrsrLICxAQAT3DKCdwKEgKrKIm1TTruKWFC49yM4Cfx6kQO47fJGG1jfjkhjjZU2aO+tJhDXFXhOIBsDQAZUBpWSQq3hAJIa5o38OxZ4s9htSrWF8HHGmDDgP+g1Y+3kP9doQQiJ4JlSkBwq2gIXFJykwxcqlIBUFZjSTBisxfqbssk4xSrD7ypiBKoruMJmCebSQWKnoaQyQBQTEdDpJL9Wt6IB67jVaKESLh7I5If1dR0bVGctOETUZ+s2fQdT8BlliFcixZBodQOPOoC0QyRrLL3MV4Dpf6QCXU8MDNqG0HIViJRfnsC6EuZEoAqP1k1Iyf/NnYgVz99u0AQiPKHJAOeFIDSNCGYvzH1SUJgBXOqOYoIrqgSgNNeJNWsjPR6vBckvQDEb+H9PyH4zaR1q53FFKDcBQJ1H9s9pFbfPCmyAYwfK9PomnZEGFKHY3dSDUHJiVzoQyYCbae5gGoahl8SAyUROXH5pQYw+Ltx6Ul+maMwIvzBTfxoK9kEDGnSWW+lc4D7kSyAQz09vgN0v7W/RVoAJzRFIMNfjrqA8RpJAWt8ZogPmB1Wjj5/reZJQXMloMORk+hSEg6SHwWFupG5sv26vyDnbaL+zKG8IRssxPZWLj/JgsUFAz2XJ7cKLD9Z+VLw3CnXW9Bk+jNpB6WcSIW2mLzUbddp78+6ZOnRYNYkuqFSkVcA0dwDX355jRBmykolMXiwiaBcPl9e8cwyk6+QTwBTAiADkieK0JNHpROwqAP0qvu2uJvQBsi1y2mVvgArK0uVMTc7Xoktv0z502fMRA0MdR6SB3bJ4ZumkhM/NrZZt+EsKF4JqZ5+DhZ61aeLuy4/TrDRnbn8dEPrpDMcP0rNFcEHTNvNYCYnWYOFbfPU1ZTHEBXIi18rMSVgr0VbTBU4dTi7AyToe71c2GFnuqmOy5oxkh5GE1Ydp25msBKSjhHr1pIcWZb4/Rlp4k5zrpMTMLRoy/8ExUx7/zX7AGFCk8vZtF0XnGLTAjVlnKZYKzwIkqrNQf3LumIp56xsgDKeKByhEGoFlWnpHcSuIrVtzoG09j2A3x+8r0+dat2PHGmq7pECZGNbLtwN3t0nbckgT2ArWVav/sxK+a8zJyDoesmPn3kCYLpOBBsIyuIzuX+/CU2/IsNgqWddULOrPJKXgPDqlcph6miw+reS25yLzoqXmjgpEX1W4eIlf1iEVISQ0zdDu6Z6Kzt3V8QfO4HP9NSN7Wtep6eN075FVWC8P054AKs/Pbl3eSuDYh6m9r9qXJspyaqnTPxEubS6QklIbeUh2Kgv2ECmqu6dvohH+6UmwMdgA8kQ8sGosurpsJYd1Iv85eWSUBVdpASvTDrOIXbB+kDsPKcQC01D5vHD2MgZgiUMkFEgp8nUX0nsoPHkE2AMxb6pFONaSjQnBo1wfSLI/Z087d+CtLTuc0dgNeyZQJo+/XlVHuoo/wjQ4QmQ9c0pYnghuwYp9moamWtiYwZaO+rTXKc/8FwvCCUlL3xj+EuVRsdDUsH7TeIT676SPfBaecTSQeyU5SKHgbGaCGcJJrDd3Mrb/h0Wg6Xm8mIYtGcLFinN82H4FfPqRUuUBgnnFSjWYbRI0hjzbiB/Sq34IoeBMeMKgleDb/u5T38XciFCejrjM9CYDh+CNo1M/HC6y3PsxESOn2oo0xO6h/Cesngz37SxTIs/ZoyMRCahgmdtPdPoieLvBRtgtbbRysbZFWPRTNlkUJimap1GiuMYfp1djwRXS7B/NYbnXOvX/4HYqqTaV9JvslMPu9LD9tMnIKigqlQyKl6h8KkzhtYsvltSlT/DT0ZDeqHCCjmGv969+86KzI7G8Bq8+Dp/cRursN/CTyOzfrGD/8VmgIzgpDG8IOfOhtI5M5IJa8FOCcPbYC/YBsx1avZQl10LY6k/gKuO+OLbcFIW35WF0gWsplDfKYZ/LaygTlU3mvGjEu/mzcb/6Cmd6yt2aLWpHt7TbUDxYyWNFQ/v11OPrsMmUN8dAPty/AWChUGrSK3glUphxERykAuh8vAk2c+fjf9CVTplYzhiZ1PhbXB+rZVZ8JBczoLWFsxRMdXAKKi99iCVFfB/lopJjJLVlDu5Lp8Q8Ie5IDm/GdeHstNosvBrLyokvzSjBGeTmZTRT55LNGVLMtaY7mIX6Li1Lfjz4pZXIOUswWffHLJbmm4LboDQBJBtAA3zlaxOLVs2dQ7pqRhQMnm6wc8L9EYQACCZaBv4fHIg+Op6fRP+1j9oz3j+LeMwbOk3+eHTBfEH/RCVpM9aLv2Sl6pn2+bsZD46gXCJgUfPTid383xA0RqWcwhuA+X+h+uQxb/0XYjisSPICiWLIOVONlGRg/+BGoETmDC4Us5xUEhsLmNxNG1bMI8M4+lUCQQo9Bi8O3obLgdG3R2C1G7DlaCosWjrSog/RwuGOFbmXBU6+J8wwCKUgNGUrfGQfvNCtnCKFXQAExwxKV9jPQbEQ0ON9ZqrV/fJAUbdQ5/ND73Z5LAQfp6Z0e1iV7VGJKBo1WjGacZBNrnMZfFl5adtMpnfG6h3CDqXXA6M98KmvQR52FvQzRDgL5YsDOOy1aL3n4ZRADHiagyDI6icajJZWMQ5ZS984TE6fvOHgx0VyDoAH7zXGReCC0eM0kIdiKAAWHFe4cvPhKxZKNZDtWc3593XphObgoLcWeLRH7r92UvsFvgqIPc+g4R80IJYJPxBJoAVVOs7xeBjCRjEDHk5j1YKeN/fnwB33k3bTiS3ZhXRziVWA0nKMMUOLN9fkrv0wldDSzcJ4hetFglqMwrf/id0UVIbyBjzs7f06iu9yBEumH2rCVNQtJiHNr1AiLYhpun16nSzKk4sTBDJYhY9Czzoqim+AfpBEBxizmDzcN5vhXe0QqZka7PpsAyTJyt8SSfWtBNWlwQUK12rTlCD9CAV/EAoAAtefrYWqQhUX4zhFed95y1WN4TW+u9TlxzlWLCaj6knMHMyC9Dh2Gh6lE0h97cUbDCFHuJYDH+YNTHPg0AMubY58SiWBV1ooUke/JZJPD4R3f5JsvcbrAC/6AEMYbt0wdv/1sQwiGJ6XPDZl/LXMATF3BPqnul1rP2VrEo9aECg5TcpyfWMKebphd/YAIm8ud56Tb/wmtgnap5TboKxUesUigsTn4ri/wjqz+MWZtmAJoyU04TgG0F4vV3gsnYGKcaUbj3jZmKaYyliAdKG/eyDyui0O2H55ThqjHewM71xNbp5guZDyXFSQmY+/y10AaRBpHasfpA1gyjrjHj50rCu6Kp0+8OxxXClX6vdPDxYMvdHOC6BHI1Mgin0asS98+1naL0lzEC75Qh1+PrbkoqvVRMgFA7Y1RX5AyKgTVmKL239aeZT38HSswWnM7tAPsZcrbWq+v7ndLG+dTnok1temfsTeJh06QVXzDQtiEaebI+ux8NOp9RhFAhAxSm+AbqBVnb2V/0aAf7KYe5qVp74Idv/287Pnz+n09fbxWz3/XLeHfR7jYZ4Zi/1R7D7wwhCKDI/1ISz5Q43Dvc2OAX/VOz6S/pVxgBubXf1xdvEQJOk+NPYn97LTYfFsaYfVUw7FE31aPt+9Hxxknb5H6FKpWJWOIUcfFAcP9U6zmcO44H2EObMmAk1Y/nkcm+f30Fr4e2eBT6dit3/SkHhbWc3d/Mkj2jQOEtBR3paeNuMvp8nNJF2lCs5TT55RbacnHyX8Ea+22vV8yz+Gu+hTDfQykbn7IyoKTIXHeaZu7lCU2ndCW5Ved1d3G6+7Tg1x13R72IXuv6Qffh9PW/aeEkNADl+zTjbBgG9cXVxjedAC06xque7GFp6kqfbnC57rFBx0n1fHDSrTuL6NJEBim+AHOeF8weJhZbioBudexrvBWVtnV+MQ7s81/aX1LAqvnM7EK5OB5HZ6259uDVfxgfYnnBbxTVAfqIsKg2BacaNIsSM4eDXE+5P5cvNJRu0/SbcoRB/DEIS8yyPEj0AAAXmSURBVNnPZrtax1St1VrtNhx83m5h/fr6WjQIUIQYfkmAyjg7TgRNg8h3vsg0+hktyXPrEvTsUWCESfcS07zbnfT7jXSl+pVEdaWkxLc8yriRJG9q7vbgp9Nut1utWq1WrTZfJyuqGP81mCOfnJCb509iV8QYL+GZxza5oTsiofLeyMKkXH/SBRr8y1DlJ1o3VTmM6P9yZzs0U+sfy/nyfXbgV4OrL+yDgh/5165pEWJ1Y2pk8R9Cuae3d/ngB3eLQxo59mf/iVB+i5L4jfFVuPi+0hV1VWOwdeDU3Xza/29BHH+Hu2jGsyD3EpEj0FR3r99+wyL5DyWG3zw/ZrQXKj27JoscQdj03zDQv4h43agZUKjk8hcf/n1JqJuNkl6bFSq/+5sSmqTcHuAXLb74exKLlcSplh4y/++iWLSYktvMCJn/dxGauG3oHBKtW2ezcMz170uoMVmuT223XsVGvuu6tt2a5a+6/m8g2jU56F5uzW5fXw/2/zcEX5xCH+V/Ev4f+kN/6A/9oT/0h/7QH/pDf+gP/aG/H/3nZtsK0O/mDOH0q7v397vloJH3x6gBlMfvJw/GMkLkjzl+FqUVI0KN/nx5d7ec0zrK3IQay2mzVncwtZqvl7kCWagHt81/z1HRhfa/N5vfIm2pqG/jH3/LqtJF3W/NGH1/yzzMqbF85bUg7fZ0a0XVgPjL+ZvQ4OXWPvM0kLGemerqOjN6SZF4DB1aI7c2ZFYpS27pg/se0p+ffIr9xK5Tfc2ZiEKztg31CnjWWnV4hd1cXTvEjplRdGf1++klTa2wmwAtyNzlwO/6Ajmf6c/j8bjQ/FuvtlpVepaZ468cGvnlDH+oUv987/Z7g+W0auO3fEvpfBB/5SvKjp2n1Jzh12s8Po526dKuxu8u1gWaZTxPTvR133aX88lkvlzs1FzdzpVvJoem2nDoNaXuTtteH6za1eTkqPoST4Jur8r5EPx4Qewd+iSaN+kRKKvxVyeZdcICQU+Z/Ro+Obj9lq8NFB3qiu6GqQvUm+eQndAwZb+RTeCsKjQD/DqUNLvkGmY0wD/S34riXzEgaOK2N/tCMVS+dARpZWDFsnnnmuU/8YaGy0f0+goGAPz+7hZ8Z4Hw/Cp4OlqDVVuH4HfmfU6rOBL2ol0/eMU7Zuv9ctDLqQBJr0Wdwr/cFShTAkAPB/RYkE69VXU9BP86uaOgtYUa0P7RvkTVXPLPqTH6vkLPoDuSkbShqcJ36rXWwVa+E7CAkWmxPPpHLZS1taxjJEj6E46xwNNXX1lqy/A3Dlw4ngeuq4UD2/PhD7OLq/Qs2m1GamHtuptLjYMIo3WpkWsRMntIYfldJmzwxl5R18nwox6MD7q84ZaxnPiD9WiutDNQf32z3qrX8cMuKbmz8/QAkKNGqoRV0KIFFqBDZiGrgYTcumZ/3BL61BOny8cfp/gx15C+UcXdB6M5F353fYvvx5XJZVITPbhcbu0uFlNyrMRKybzGKnnZDu5RSdODXsisTg16g5ZNWpjITLuZh8xy/FjAwB61D8ls58Iv6r9VQMDeDZ+eO6uGxX8H8qhKW37oT+FCKTejfYDcuabbAekrOs4D/HiP1hW9SZ+t58S/GgF7vDnthrOEvRNyQWyOHw5aOpwX2GVa8/LTgaOkM7YOXDqp7xwEpOuZ0yXgx1aa02JVkIXXP5MJUM+13fbHO39+cJDLNCU/nbd1aC7Zud3a2p3q0ItvVzOy+egdL6IvDKzbJoc2pP9AwN9443syF359J0JuqlBCU5CWtlPf2VzMZlMFUOhOvmokvFfAX9Bdnx6GqztuFjs37JjKJ8ZAlmsS4l8LiyDzyX89Quk/QL1Zkzg9uo0NAFJ17rbylmTgH7t15jvqfk3JbAFD622sjcSZxdZApn5Cn45f4xPGn2o0fb+Vjb/pxynjB3Bs/07L5yiw+zvNX46EdfNyQX/4Npuv4BrwxKKVzGgL/yljaPDPCXMS/LksAwXjWY9T9g9QY7B7u0NRLN7l4Y//B7si+vx48rBxAAAAAElFTkSuQmCC;" vertex="1" parent="1">
          <mxGeometry x="640" y="-126" width="103.03" height="80" as="geometry" />
        </mxCell>
        <mxCell id="toXp25n7A9kxLXInQJBA-11" value="RIOT API" style="rounded=0;whiteSpace=wrap;html=1;" vertex="1" parent="1">
          <mxGeometry x="643.89" y="-38" width="93.25" height="20" as="geometry" />
        </mxCell>
        <mxCell id="toXp25n7A9kxLXInQJBA-12" value="" style="sketch=0;outlineConnect=0;fontColor=#232F3E;gradientColor=none;fillColor=#067F68;strokeColor=none;dashed=0;verticalLabelPosition=bottom;verticalAlign=top;align=center;html=1;fontSize=12;fontStyle=0;aspect=fixed;pointerEvents=1;shape=mxgraph.aws4.sagemaker_model;" vertex="1" parent="1">
          <mxGeometry x="661.95" y="240" width="78" height="78" as="geometry" />
        </mxCell>
        <mxCell id="toXp25n7A9kxLXInQJBA-13" value="RandomForest&lt;br&gt;Regressor" style="rounded=0;whiteSpace=wrap;html=1;" vertex="1" parent="1">
          <mxGeometry x="654.33" y="320" width="93.25" height="30" as="geometry" />
        </mxCell>
        <mxCell id="toXp25n7A9kxLXInQJBA-14" value="" style="image;aspect=fixed;html=1;points=[];align=center;fontSize=12;image=img/lib/azure2/general/Dashboard.svg;" vertex="1" parent="1">
          <mxGeometry x="421.04999999999995" y="451.1" width="68" height="48" as="geometry" />
        </mxCell>
        <mxCell id="toXp25n7A9kxLXInQJBA-15" value="MetaBase" style="rounded=0;whiteSpace=wrap;html=1;" vertex="1" parent="1">
          <mxGeometry x="408.42999999999995" y="500.1" width="93.25" height="20" as="geometry" />
        </mxCell>
        <mxCell id="toXp25n7A9kxLXInQJBA-16" value="" style="shape=image;verticalLabelPosition=bottom;labelBackgroundColor=default;verticalAlign=top;aspect=fixed;imageAspect=0;image=data:image/png,iVBORw0KGgoAAAANSUhEUgAAASwAAACoCAMAAABt9SM9AAAAflBMVEX///8AAAD19fXNzc1mZmawsLBWVlb6+vqioqLKysoYGBjn5+f5+fnz8/M0NDTi4uK3t7fBwcHZ2dlcXFyXl5ckJCQdHR0wMDDa2tpKSkqMjIzk5OSpqal/f38rKys9PT0MDAxBQUF3d3dvb2+IiIhzc3NNTU1hYWGbm5tYWFje2zF9AAAW4ElEQVR4nO1dh3biOhC1cO+Wu427wZj//8Gn4iIXEuDtLknInLO7WYJBvh6N7hSNOG4jfFNckxIa29/8ylpEULqG7oDLqwfyDUTXwBH/m4Ls1UP5+gJBTv51QfvikXwD0UF/CYquK37BukOksgZE8leP5BuIDQoKlvvqkXwHgRQr8OpxfA/hiWpVrx7GNxE7+p2G94uHwbJ8F4maZb+ofSS2hWYhmCV89YC+sghIrbByhaeUTEgAXz2iLyt6PWqUenSbXxbxkUBrmn7TVHz1mL6oHFKwI7+atSvnPaxA6OuvHtgXFLgESXG8YVIGV8U1zd+AICvHYAFWxnGmk0//LS6+c3j1EL+QLFXLk/Frrse81PGvHuLXET2ccbEsQJCBygLBVw/x64heDqxBUo66LpQmh6PyLJ3/ZaiT6MRoXXwR+j5U+VA6chy/wArkavzqUX4RITaraoUJmlqMffSP4LjONEMLwX71OL+C6GBHLilhWQ77WvNLvNRkDZTWQjrpDOOy+EWtvnisLxU7TssFHJF3IoDY2MhzshovORgQYvm1I36ZmOnSipc+dHgV8ganF1eCViJma7VrM+fV436FHCQWKCHle6kMNGTqQ8FNaFKsBN6Ep1ZYVtJ1SVJ2vv52PhCrNG3fs6YrKADmpiZFKrg2QgbVWCfaxpn2FbSi+eLR/2OhDo1WY7NUaOvpBjRRF4B19aFpykrocdhlPNIrMbuPGvedzBeOzGiZmJUbnKgUjcLPb+05N5CG/w86Kb2Rh61fo7OSb4gDkarudWaiIbA87qyP2EwxiffhErKa7wIFrBxZJFuF0FEHwPj05MjTKsgzc/byHrYLertIBamrc7KSlNi4e3tQmHPA/qT39Rt4QWazM/e6c0Y8GrttEIW390MNfAmKaCQUvmknP94JOmzUqjzx7qBHKry9zhmKBtTYdke9jMzTTy9TOlgLoAKFaofqckpwOt66Snf9K3r3aNQzAZOOqKx+dh5IZucgmlHRcLvQxKyg3tUr0zlRjuHNfMGFuWR12c+28SqFSetOyCyRH69EtdRzxrnqSlEMU7cdwSJWSkN/n14x4hdKTQBKCcU0yc+NPfwoTG8yjkdddZT0nExMIVVhAvxXjfpFQmaTzR1sHikUMV89nnq6KAxVpSbfllEQBOOip5VSkzouZyKlfEOwOpmDGogUBBEJ8HWULsErcDm7LxbmvxH5KcogS+nLhv0aASDkObsABTHNBhSKqhjcPkPX82XAb8Wj2p/OFNaCPT0cOvCmVya6oPcLoLJzBIpFtK85/8OBfgXBdhzTB40qjc5D/yzhnw/5koCJnKzHfct6NL30j0INUPhrE172hfszewBIhonDDQmBgUZcVBfWM0za+XTKlfWFCKe8+ye0CnYM/f2zYohoeW/vDsYho+2aBJkS+38ZXfAoQ9AEmioUdq4T0UqYF//Ac9ZPZAx/JQ/ukgVNuHt+oLfnWLMSBJiWnhYzDxSUfu4M1AwSU27+OlgyPxTXaX9es0x+SDzcDxZm8PwZVNmNgBZyefbmtAMaVW2fcQXVVOTtXZBtJKrjiP3kNDntZAr+NFgHZcrR3A+WjMhnIe2ipPnNRUj3lccHTpN14In6o1vPhJVhzWVW4z8OVjR/9v1gcZts4CT97YsOHlAvsHim2LS+A6zhY5mazT8OFvNtD4DFVeuhVkLaCheLPl+Z31srzLoQPQie0ayDEq2/cC3RoM2GMmUF/rh1tJuJbz8C1rbmtjjhRGGZ3L7GrLVa7J8CC61vkyUCXp8Nkja5N6LYTY6C7A+P0vrzMdh4tNKPgOWySpVcsS+YCLnBJSO3wYisam/RNAx0WUFM9SkZY2gVo7WybJg2hZEN92d/DSyOOz0O1ryjAukUzZo2tonTPQNBF9FAwYpCw8DBcZwnibU5eOfd5jfEpi9YYvj3wNKjh8Hi2H0CeYYc6QoEZYXDpnRVgleZc9YMngz+WbDGr5Q2vyCB20VM0f97YBnt42DhKrVkjsQkkPBa/MqZPOI4AMq+R8C434+JeAss/GVLsNS/B9bwIB4Cy0TOTT2BpTIpfEoe3AosmzyY48j37vYuuQ0W167A4r8WWMiUz+sTYGq7x3CVWxaLscpjGRuwnhzlB2Dp/xAs5QmwUrDhWiBVeZ4sSnrmcge/Xgx2/PSni+I/AItzzgtO9dXAime1GmajNlLz+KxmeeKvKKE8UIa/AtZKvhpY87aKiHcJ+biM1xsW8GJZKU/LwdLU/luCZcwmK1DQ2qhdqD0/5FDGlBUxVH5JP2XCUWUAngyVfmOwyEWUPCTYegkjUXCBx/MCenXjMB/wW9Snt21+Z7AgJqB4c0Vt4iKienA3IB+HQDFMx9oPXInhswHM7wyWiXj/heyuEEQc8CbMXRe5Js0swtLVXY9Zhs822frOYHE4FIJLGISckIhClx1TzhsIQvX4QWSBf9bf2QfLOOw4Cl8PrCn2LsybTnwbb3fqBvu0K/yzfaN2wTJr4G2L6r8eWCpYSykAC9v22u4XK6E5hU/w5rpnO5LtgoXoXrkd99cDi9TPJDSrWuEQooB30yXxFficYeTc/MBxFZJI9MnnXQiezBzugqXupvAoWOFtY3CMeT7+CEs75lU3tndG+hxYhxpdlM4JggR/cg+gSYLKBudOY4UqxwkhfjWHfAOs58K9u2A1AGxSuSNYt2Lw6qmtCw0UyfnGuhyfhDLSQBhZXZuvtxotwerTTHTjOP6UDvlAOFnmWH1V43oHOZ7XOqOFwqxdBVDRk+Shm3rac0RrAOvKvoYo7l7k9QOw7EX6TtpRnc2ewKXmLsBatWnAcuPmHGQVynjM9KTDJyH3X+XI47DcYjZPAQ1IODoyM88RrQGsgN6zbUPH6fHSsrPL7CZYZrPe07d5y3InPBZ+5/cDWPYWrBv5LdsC0D2bYyzrrJP9PJlxKTkS+xVSEVxG3YooWDr+tuc20YnbgRG5H6wDjUVVjdK3xY2ryVuqS64ofVPv3f5yGppOyiiiZiXCLYMsgYTL5whzreOfHRN4SLeQZYDADaY4UzkEA9W8A89VHd0Aa2+y7YOlCww+sberWuTKsUhKz4iNaRbv2Bh4eUQrd9S9FWEQBA003THTUyG00EoumpRIQaAHbTrZ33yYqG2Vg/IOaLZyA6y9NW8XrHFnx0jzaNikXN4erj1nXAzspoDrgshtwKKdGmrlkz2UNq49cjlqBoKLhp5ZisHCeps1GQIIK7I7jR9iEumg938Cy76MYPVZ1jdIOusxsAYSHR0Xn2ctyvaPZHYyq/URIREtCjfWYJmEkqefUwn0cKCt04wrolpXnZOzo2GJJHV3HmhrSyFHxgB9qdsY3AU8RbQGsIg5lJEcTDt4BKwh8TipjRtusYbEc2PBicGqdGkFlo0nYXTP+o5mWc2JU2TLR6PjRSc60VSew2EHOxi/OqgQRrzroLt+ypXe4Vn4ud8NFl3mZ8eU5j61xeX0OxbMTanqBRRLsCBWxfauh4+/Pz4MTKvSKsTdcY5MoyYvdGOg+VPmS8Vm05BNzl2ZzDtlj5T2D4DFiUndMvdtSrfAWs47fQnFAiwH33t+XxUg3lPejNnySHRL9ODEAAgYrKBE98Xz6+/C315vs8p3yB5Y8iNgrYSCtTcN8Sp18zIWLEIEPigcWgp6d6mP4fgILx14+47nAUsDwZr7EnE5U27DZzj8rrtjPQ+WbW0NvD7Sr+QmF5zBOhBn4P5NEAaxmItcPtJN9Hg617/c2B/go/c/Q0t3wcrAXkD2LrBog45VaIJxhrJ9F3YC60i18IEdIx32P9iOM51MTVmC9PzGINEdPrMnZResg8rv8Ju7wKJ3vQKLbaxjnfbiEvSyzoCDElr3xx8wLiLHOFxkVigV0KLbHuABBE90wXg4rHwbLEN3SSh8CxbHL5zHdrt5cvAd5xTz/YFfvP4mMpPJx+tuXhQgF/cKlgcpwRNRmj8Gluq3c23GJkLoLooMw82Ov88c7Y/EB1btL5zvlpbmIhJ488kqz4SW/whYpusNy5F2AyzO6BfKVa+wmMG6DsoZ3M2xTQDUUGVUK3dOZByiAm7WTMaIyz4sfwAsXanphyS+wyvVPlhoeIsutdpyFoxgRSJ3GHC/f7+pADKxFuc6GuTrmD0a00klTpa8W4vbPRHT+v9giVRlEoUUcOrJLbDwFg1Gu7yFCR/AIpH/MQ1x9+LuguRQWvMGJ7I6yI4SG8SpssnCJ6+GlN5P5Sb5v2CZVP3L8c4oKb2V1bCVuVRvgQUFq6Ikf2Qa95rgwwWoKlt/NCmlhk3fABNcLrDOlMG+X/4nWEN3hTkk8zFYeDfgOF0WMS8K1rCL0hwU8Hrv3TigXbSrK0aW2N9aVeERkf6H20v+T7CoEjCE3ew+Bgv56cNtsQXSIykduM9IMff2de1KAXQmMFeBoKFwmRc6EsU3OZPVrLzlosfXw/8H1rBgM986uDssWIa45H/yEFvdgjUV6o0T8V6aDRH5n2yWJtbo78AhetnUzrnBgXmHY8sAHcv0QfEoL/1/YA12mdH1uNiA1YNoaS4O9Cpj8R4ym8fL6FZCcLc/rVtVvNkf1uGRYsoakvCYq1jz45FLXfYe3jwwBDeun79zAKtiV9x8C1a0uGss7eae641m+Uuw5sT8nfcjgua4BgsREfUw59UsM2KeYSzbwm7O7gORh9vV7nivuh3+QJ0us5LQSGlFdxvRl5LNPROwEhYsGp1mbN+062sn27sjRgj4vdMGLuKUJwNmyhbAkzONHqNa5rg23eG4DuNnj1scH9tEA/QrfaH2/bQZEljC4h3cOA1ZFMyBtjNkYWo2c5+XCJHBGz6k6rbt/0BQA9+tZutKV8/Harynoh3J/Uwlpyw503PXHC/3Y10/2s51OUKqT1R5L8dR/WjPisVMHZc/RkW5bvyUEt7xJA8dEIfy5SqdV8aJfJVmaikaMl/jyB3yNB4IxS88EC9VnA9oIANEkWfj2aezVS3rVVp66iMwvqftHfXoOtgRAYt96frsqni9M7Z4PM6UHA1N+WybowPCiT50Y9Ix8o1jT3aMgZIyQgYdGK6jlB+Isu1WWTU3VlN33bDRoozOXJYwRGdzrpnKB91ht3uHw1eGjLVYNK3AHVmHiWcv9gR8VvgiS6CdA6YVhR9CfJUN5wZSM1i2jfX53sTFGimC/43JuA2hDE867uaXIh8/p+HxXiY47OvmYo8JxLrh5tdjkodFK/jM+eEJlxrfnjsBEHyXLDIHZ3ykVTsrg+9wjVDca+Oz7nJSHMeBNvrLUfLTpctvhfFVSZKaUyo6RLI8z8ZvNUQrrKoqtDw4AO1EoSW4jIoauijUhTbcehi17C853QuD0qol6XyicplMPwwrLYjKspOky+fxrQbRu4mgge4EAgrEsD8PWL7IfsjB5BwegvqvFOfdlhhCuEB5TwkOPBTxRlln65HttwDAYqr88W6a7QZoIrr4bAZqPStQEdjlYRnXNk02YxNN3KcyiN9fejwRc7xZepjZYYZnITy1g1JHK3OOg0r+k+VH310OGoh07K4GoxlMsVqacxDV2gk0+NV7Hm6hYr9t4SMWBAimnw9u+MoI1i0r+tn9EW+JAEjN0SStQjkKE6Cvaja5BJv5wO53E4OUWTAZ11RXsdlaHSszWyldcrGH+26N7ahkJIDCNMhIaDsdddmCbF5+cdGI/qZHGMkkHrQ4WkYjB/fh+FKCCDTtsXVh21hgHq091UTkuwvCKRC5ZbQGd77AZafNkc8lulAy2LgkBPGvuenXEBEnd9aV9NLRwAtiCQ/2GZTBIu6D6fQxAN3bnQCCREYGy161qSaUgYTVJEdWz+UydGuIMl4Tzu90oMUohwBcWK4ApPSKDFVk0ZBHqdiuIrIRMlk4kbj2uzXGJYKoqcP2QAqTpizw6TuCSjtbpatwgYOjtqcHUuA/SVJQmgyP17Bf7eEGwlIKSWcrTViGEktw4IxmmYt5GxEQJ2eqdgSlT9tgedZ7yRa46qQGKn/Pw5T1CHED2x0DwSRQY/M49F9liFVcXf6EK1nmC3ic+z7Uc97/ncStIsSb4lGVBlZl9q2mqbJSIC+IU7wCZNv68ndEKyPboMfQe5GOJNRFCHHHBmi5CGEfdgsrhVUveJtDixjJMRNg3J4a2vbRtjG1v/K6oWKlw38SJkprR6Brn20I+J1FL4G46maqTSa/EKadkUBj+KkIhPSR2t8fIzEJJcDEGrtgDqQe5/QuecesjPns6NCs3YMlED9BICiwRRLHmuAhIUfCN77LM2fRzNuoZaRYYQms9yNcGdGt427n2rBjvUfGLUyB5kegSt9Ouaj94TdlBbMkonKxFrpFtu8VGqjfjkMg71jQOXWDVorbBVw6UhF0UOtqYdQRscDrZPh2gfmUZL/4BVK5D0JbzupSqPA8Hao12CWQp2Hp4t1IhEhKoG22BYeHzwkRnCOx8KXK2bRag1UkWaX7Wdo3yygiE0QKxtU9O4/5wxXqR+hMNVSjmCmpIsvvKUmyef6HBKXdEHj4Vtz6lpUvpDztcX3M8sIDnyW4muSzAKqZWiCUfgjZMD1aTnOgdr6kfLRKknVL2G1ltIz3RGj9h9pF6tHO5U852e6AeHmTGbQiOjjRlneV4AegYqv5vG0xpnEgLSmC/HaibGyT/3OYBm7oopVjIdIUBawyfcyZBXXt7/LQmJY81nDfKo0B2Tt7BXwL4ZfmfSJe0bhK9m6+7WpKJB5snZY722RZP54o8KMI/3QAhVcCsNPAOoiAdMM04XYAtBQ2avnlOQ99SDVL+2mHKzNlwBvTXno1TlT7bpaNzIo1YLCNRuNWCdlcaD4GgP7CuU2vFjg0YGpLPPeqiEEsjOgJm2h6WnQyKi5n2BCqtH+nYTvNOfdpDKyqL71rGEyDqJ+YcDRPZBo2R7yfWtI3SWsqEoan781hX6SVqqMmHdm10zrN9RTUYDET1FR+gA3jLWD1fS0aTgTqreGiguiW32WD5S+QievGJl5uu39Fcs7z9toJzXDUty6Abmc1+HbSB+DMN5Z6GDfB70iNdQ5BeZFwyJlQB39cKWEqMBppWdZq34WUQnWgExUS+tO3jVPHLahS10tcQ9zZDjVLC6wLaT3Sgc5NgXYec/vGUU0pCGJ8PB5jlxfTtZZawvL/37cuAE8mR208aEKhAol0EzPNxlvRpWxiaZ4T0+77ZOtHJhumPu8lFpHG9cPkxacuepnK66ZOwtffudTeqUGROs7ZN/i869e7kobiQHKST8OJlZqheZnQgudQ8DPHp1umIu/SlZ53PqU+EnJSfMloWCEIgjd4Dd87juhIyLxAHpMq5YI7KzLZHssPwylRhmNdvpkA2AYhkELw6VF0u/LNuYUBkVnpeuLwqX7RZDzMZyAq1gZpvQC0SuLLJu/gzYM6P5Lo+xN8Gx+ifFExIzo43sVB9gf3h97eKyFckgBCyz5tf/uJhHW7jit+TyG7WRHrxD+7fiiRzamqt77fZFwCgh0kP5DKSzNnrxHZNxXZ5L2gshrVlDlDLIPAqi83mP39GJG/Nck1fw5Ok8giXskk3+HtI+9kC9b5qGiNkkFHyYH0c4KBazGPzgUpRJAIeQZN3bahkudSXZfd2efFCbyZk+8j1an6EAP8oBv0zxDX8c+UVFpCqvKuPgU/daj0SGEcGzF2FZ9cLWwNfTnv7X0XMW1X9QXKsoraa3M/4915Rumuo5wEsjROUud93zvuD8mFPSW2Kvpp3ly6tac8zDir8/KTL/5cy/SEyMiAxTyvqko6SK+qKs+7tnl/b9Bf+ZVf+ZVf+ZVf+ZVf+ZVf+ZVf+SvyH+lwWEhI1Nd9AAAAAElFTkSuQmCC;" vertex="1" parent="1">
          <mxGeometry x="626.24" y="449.20000000000005" width="130" height="72.8" as="geometry" />
        </mxCell>
        <mxCell id="toXp25n7A9kxLXInQJBA-18" value="" style="shape=image;verticalLabelPosition=bottom;labelBackgroundColor=default;verticalAlign=top;aspect=fixed;imageAspect=0;image=data:image/png,iVBORw0KGgoAAAANSUhEUgAAAOEAAADhCAMAAAAJbSJIAAAAilBMVEX///8uLi4qKiolJSUSEhIAAAAVFRUhISEdHR0ICAgkJCQ1NTUoKCjKysoNDQ0eHh5ycnLY2Nimpqb09PTf39+7u7uWlpYZGRnExMSMjIyoqKhISEj29vaGhobl5eVkZGR8fHyysrJDQ0NqampPT087OzteXl7a2tpWVlaAgICcnJxAQECTk5Nvb29pDGZ2AAAIT0lEQVR4nO2c6XqqOhRASSBhEEFFiyNKHWvt+7/e3RkYBM+9PZ7DteTb60erKdC9SLITRstCEARBEARBEARBEARBEARBEARBEARBEARBEARBEARBEARBEARBfgaX4/rVIXTK+uAG7yYrgiAhJitKQZMVk5UUFIrJq2PphOQYEI19NFExOdqEGK04qAmaqbj36oYkDLNXR/TXaSpSkxSTrWiTBismA2/wQJHGpigmg5CEDxSpP311aH8HIUgKxbQm6BkimEnBotuNUvMEaXiXWQpFAwVLRS4FbUOyzJRUgqAViHrbcYMErTe/MT4IxY1DA1MEVYW1FbkhgpnwaCmOXx3W32McuY8UU2MUxylV+cRURRAsBr2mIjdCccxpNa5vHPMUtaC5iqVgYbOJzFKUfbAkEjbXxtDvDF8d5J+QMHqn80iR9FtxET2wMUzxPrOQSNhMmorzV4f5HHP3bH1T0e+l4pyFcs7SbKhMDBpNRdZDxTkTeVIovt0p6stNLcXZi+P9bWZM9bCmYnk9re+KsyJ+pVjaBKvygmGrL/ZKcVZFL3vYUn93D7WF+qw4q8fuV4p3gpV3/xR1H2wpNgTbir3pi8t7Q1U3ue+d6gtNZg+W7I1ic1qmFPf1RW4+y61GexaK+Wsi/m0m0QPFOmIa4D9QdD5eEe4z/EcSUfMcf2k1Oi3fvSTap3jYFwuKiZxSjHopKDLLLxWrmapUnBdfnd3Lon2K2a9q8VbrpHXFaPHKcJ+hpajy5P25qEqxf4IQeLOhCsWs6a0V+yj4C8VW1UpFdnt1sM/RUpxA4bA5WF6hsLf3RT1WbBZeXx3mnzBvtslHiqzXF/KbtRiJChvf5dPo7dVB/hnzRreTPnXFvgu2M0ujFqNe90LFvyr2O80U/IuiGYJ319juFU0RfKAo003Um0P6b9BSFLO0cw/P5f+ac/xA0SymDUXfeMX+nP/9PneKJgqCokfNFqzVoqmCpWJvzt4/wdSmfb1s/10y2zZbEBSJ4YIIgiAIgiDI/88zl/2S7ak3VwsTwpa/v9YoTeV9Qdnk5z+Zt+R08Ptr7UN7JH4THv/4t9NMPPKMoS0Nxw5hP74S/8yQEx8NXw4aNlgncpTQhucfa5gM53MdWd0QiodVwMNz8SkrThwOtzFj9tdZGc4OK0ro4XBYTWDdZe0RvfMk0T+scX7N7x/eG+eTvOPH+cYnn3Puv8sLf5XhUBWv9PXABWP6aa3M9y/yw47JdyfZbDkSowUVZxUJBVhifTpVVs2Y8yl+HK35IPLi1F9Vz30tSZR6aXTs8mzrRsRJYe9H27rhBwtVsXORDfGdxvrK0owTXrzKxOWR4xIXNEfWwBPCtuvG/nodE7e8q23jEscaOoTcfCo2SWgxq1hfHErj1KXU33QmOOIgQQ6fjk3EfemFoSq+fEY2CeTLEFc01reQzDnxwDCPCOGbYTa+iWedwTBb7GDh3WKxgEa3C0ikB/8kJe5GGgYktS8rHpRnyA8u4Yfr7HZ0STTpSBDiDIloNNNtKk5ca8PcJ+FAFGdbj7j7R4aEEq5a29iThrAwJ5G+FyqLiKcv6F89EmXSkHg5WGfi8W+xBWvCiaPEvgLidDSzDQgd6E1/MDbWhmtRrKvgyyX+uG04d0ha7PZlqgynXD1SKtiG9Kg+UahYSxo6+o8LT667dkXlKkKSPjEf/gYQbfW4Zz4sWunMKepH2ooIm4YLl9jlZuy24TAijmyKORdVKAyD8q79AaXvlthJ5TR2E4TbTgwhCdwPf8rwI6jNv6FL0bbhNqyFtA1bhrAClQ/UHKktFgRDp/zbNRabuME/f1soTtK5A/Z2Y9cpw1Nof5VFS2hT65bhgYqa1eyCtiGkXNG6oaLEL2HolT0NvvCpNYLc62ogyX52Ygg1cffciza86KMhSZ4+MjzVFxnZbUNoivZebErtQ5CKS8NzRPhZNg5WEnUzJO6CRuNQhnfF0OOCdisd2bVFVrQ0LGc+Ioc62ThSjwkLw7ScA8AmeAatlK6stSbp6MAS6qd6r1q2LgwhOVbv0VF1cQqDTbkOWYu2W9bXNCozTdXXrDWMg287W/VG2TDLa3Cw01zZgLt/W0/CSXjRn3MGO1kZQrFdPJb25slHzyEtEFVwCsUqmU/KSryEejyEvlYbuCGNwQxGVaEwDItNwjAhPwfELrNAZ/cUv6Uklu89tK4Oga6gR/xFWXyDyFbwe+wTV3a8K7QwMXSNoPEeRFzZNtYjvgWDult1p0zcv0hXVmFIuJ4DbAM1kiyd4r9Mt6ybwQJYwY50tpsd8YgN07Ni1vYOxel+saMxzN5kU9pDy6K7zXtK1EiSeJSE0eHr4NhU16G1AdeUx1zP1r8gWRaf5ZzGGY2TbP4OVaiqHyZMtnP6+DhEMGvvyjA5wBwqdCGWmCSyH5Ky2BbFbqqSx/oI4QcBhZhUixqngXhzGSXxYa9Hl8ST7zez9ZOlcERcjqvCEKatPOWpmOXrRvnFYDeJjQZRhxfKr2EUuzGPPkQ2GzJHDx8TG4rh2GFX5vgdS13XY5ciO2Rb5rluykbWhDF1JDF992El/UXMU4sqlP1wFqi3KcfVG7PmB8bT1ElH3aac4XVxnWmR2a0alyeLt1l9Ppzlb7dlPSVMl4tbLmKbTOorFRO+RZmd9Iif7KjvM7K42+g8z4c//hzkYyAjp5U5GMK+WGfTn3me4yk+IDeVlaMNjWIORxfVLdHGGc43I5g1XKoC0wwzBgNNSGsZBY4XTXmhoiThqRd91o0yxjsb019Ctpw0hvDxpDeXGBEEQRAEQRAEQRAEQRAEQRAEQRAEQRAEQRAEQRAEQRAEQRAEMY5/AIFlhyjs5T0FAAAAAElFTkSuQmCC;" vertex="1" parent="1">
          <mxGeometry x="800" y="432" width="90" height="90" as="geometry" />
        </mxCell>
        <mxCell id="toXp25n7A9kxLXInQJBA-20" value="" style="image;sketch=0;aspect=fixed;html=1;points=[];align=center;fontSize=12;image=img/lib/mscae/Docker.svg;" vertex="1" parent="1">
          <mxGeometry x="250" y="449.20000000000005" width="87.57" height="71.8" as="geometry" />
        </mxCell>
        <mxCell id="toXp25n7A9kxLXInQJBA-21" value="" style="shape=image;verticalLabelPosition=bottom;labelBackgroundColor=default;verticalAlign=top;aspect=fixed;imageAspect=0;image=data:image/png,iVBORw0KGgoAAAANSUhEUgAAAWAAAACJCAMAAAAlgxKAAAAArlBMVEX///83KSM4KSPWzciKc2PQPhbNyciblJFpXlnzz8X18vHnnorq5uOpm5XcblBaSUO0rqzg2daCeXV+b2lQQz6OgHy/s65ENjB0X1NdUEzKwLqPhoOooZ7a19bBvLo/MCuJeXNoXlmdj4mjkYR/aVt1ZV9vWk6QemuxoZb39vVkUUizpqHt6edOPTfTSSTttqf55+Lihm3wwrbWVTLqqpmnloqXhnzZYkHkknvfel7znMtqAAAOyklEQVR4nO2d6XriuBKGMSbgpmHYIRCWhCFJh4Zepqdzzrn/GzuWbG2lklSAE0ib70eexIvAL5VSqVQSlUqhai4bD0yNZbPYhq9i6j5ESo/Lc7+dP03dIQe7T0apHqdR1Kmf+y39SVpMGd2kvZNH6qN9/+ooClLzLqW7Gi3A4Xr3LO/mzxMz39VoF77wqqPUTc13Cq33KpdadaYDvGc/5bt+u/fzZ6k7mORh1rDfJUFuMvdwjRdomg8jQ/0wOMZ3eOVLUhZpmXoIsON8ee82mkbD5Dq48Kg7sfmmuvPdo/HNx2/gguUoma5YH3gNibsoXsbGjYb73yw6E9Y/7Ypo7SVeJ1oz83d4hktW3cU3igbOmwaqf9vLy/e3zzWm7cpopfFOD3KhauH+IdOoh+s+PSfGarkFT7YbTre22YNGSg74wcM3Ws1iTG3dutsc71NNqAMbKXf/53EQTInOddzOlRr9ULawSy/b1pRWoIlV64yPd355DTiVZsL3OjVtfBytbjW+lgVvf5/v6c6vRYBvdC/5ftUPawPkxX6j863dghY2td75nu/s6ocATyTggXZ0qDXxavKt1Z6MBjq12pezPd75BUbIiL5igLV+60vNkk54xfC/nO8Bz6ygh0ijBQF4rY5pozaEb+olVOjHo4v4fE94ZjXCgDsC8EwdUz0cyjeNhcVYo8P/LK+PeAgDjqQT3toG7ODLED+l3meVh2+vvbI6Cd8oTqitDy9MA3bzBYrjchJuEfgqJxxPgAHPqHxrs5ISDgzjMm0l4FfTgOl8a+O4nITnFMD72DThaX5z65nMd7OOy0mYEEREWi+XmXA7u/eFwvcpG0Rv+XiwhAO6OxLgsWHCeZq98jfFdJ+yMGKf+fHyZX0eSIDbCvCj7OLGJN+w5XHwRnSUpStQoQFW+R4WqWUeokfiW9tH7GdHRiJlc8M0wAMDcGaFr7ofcAOOIm7A8p+gbG6YBvhRAR5Ee36jEaHtnYSfOOCO5mVKNsNMA9zRAWdBmhFBdPKMg61ttM/yw7KBkplwEoRrAR6x+2IDY+oCQM5daJKi30z0pHLJ+jmkoMcPuJMB/gI5yrQO9BBbPsesBoMlM2FrAhjVStJZRxlgMMbgaTbEiFO2e5621OKQUnnh3SMJsPSgs1UeBgOQ+SzcdoMejrRZkbhco43ewEHUAZhdzqMIaKrC1A3EGzl/r7ngVOd+6vfTS3wY4HH66zBiBVO/AWA1s7e9NfkO2c9HA7DdzX26QfTXX//+0C+qV6GGCbGQ+Vza6dNsBMCpq53uVgm7EzhhfZZzsn263dzeZtMf0yX7OTYA290cCphD1hDbgLnuLhhxT81RUACzi7uV3ZR1cy+mDW8dN454bWsnNmW9ESfgm2/f5UUOwNXJ5S4RMeYxw4A7uQP++jp7SY14rKXTYK1JpsdFVhbQBoAtm3MDvrmRhF2Aq9VLrX17SZ/1AMAsF8wTPcw9/J71er3ZswPwajpNRt1dZcfLAqAB207YB/jmn/wiN+BLteFdZpVUwJPcgLGJIrOWR8x5LDIPAQ3YdsJewN9yg3cDrk5hg5ehVvqstLGyMGBekIZNZADAq+wF2iNWnG0Z8IGAbz5nF3kAVy9zWWkvNgsm/YDFXAY60wlLrrMXSJYshhhbgK1ezg/4W3aRD7C7Ev+c6sUxMYzIDZg/BmbAVh/HneIuYiPFrc3XA/jn51z/0Qh/4hcpwP0G091QI3yRsRp/VirgSY6NZMDZ6oL2kFUFWB44tuc1PgGWTN+hj1CAxfqyftU6dFHiz2qxwQEzS+ddySvC98m6gdv6PhnCUXIuaG8Y4MrnIODK9AMAJvVyWbTBzBKbitvY9VerehpC8N+SowH/CAPufgDAryTALAvBYzSYhGByDeMyWz4acOVbEHDrAwAekwCztCb7t99hBgwXvRQF+K8g4MoHABwT6isnMWPIujisGMJrwFfAFCfcYUm3DrsFidH8BoxGaeUCTMhYdpiRslFcbPMNGLA23VRWwISEGk9YsFEcVm8dcjGv7w64tWxoWsIpqsUcO90VB7TEUV0cE03U9Vvn1odqvnA3B0zI9zAnwNLsmIewY2D46bwz4HpSBUoM+o7Td+JPbWH1QBzjgJuNCbhz0tAfBL7wQACmpSNYohLzEOGPBxnKvSHguyoiBa0JITGxfTFkSJ2oNyDH4uyPxRS5c6js3XrhhgBMCtR4DIF5iPCdiAm/HWCUb4bQNEpDfa11tcSyqTNHP5nUiIX36FunpIsgjZZdMUTQQ0RYOu3NADszbvn5luP0UmtKvjnZGPt4LM+iwU81t8+0JGCKjzgyhuC6fz/ALgyCg8PAmdlKDyBbl9C64fkq276nFQmY4iPYq2IegmL9+zcDDA+5DLSa91PuD2Ch/selw5ZH6pgHEOJ5rSUKXj5vmBKfosAywQS+xo4IxQKeg0Nd+zmFuqbFQzUqDfFrX7QubVr/3dKEXdqwDrNW5POGfQSrl0LzECTA6zcCrHU82SH7OTWCAcCyeTnBpx9wN8xDDK3vnCapBtxxyOcN+wgWpGGpdny63vp4CgY85ztA1ufalEbLBDwc8JdoKcPD9g1qJUN1WsYM1fzsQvzdNwBn/wraa7M/pevRt3lQgONgV+UK0ihBBOKETwRsK38uBTh/BeWU0Y2ZmhpgFfXm/yBd/VbZjpj9UzZrAE705tUDh5LCThdMAxy9OeA5ACyf0w9YgWlov+dT1DLiqOvtiPlrFY9QAMf+jBgfJ2MumAo4VNpzKuBJswDA8uY7cK5ZQUY0yt2TAAfqhFk1GhYFUwHDSLhwwIsCAC/BzbJxo50jAQe6OdYnogsPiYDhxFzxPrh5OmDZqWW9XMto61TAgZQaMxB05SwtirDSEYUDzvuekwCra3lIsjTuPBmwP+3OrkaXfhMBw16ueMDZg9MAZ/t8c03105LS0mhrWQhg79QcD70xvmTA4zcHPCACbjaG2O3stJkSlswWxQD2jebYXS0UMG2obIURxQw0jJFGlQZ4iWcd+Wk58OZ3ywvNdo4GPPNEaiyIcCz+JgK+LxSwyqaB4qkgYGeyolEBKWEjGVwEYF+kxnKVjt0LSJVX1uR9YYC19BgFcMthv7Ana2qv1i8KsCdSc0Zp+vIir5K3AmwWT6mhsph5NAm6k478tD5YlnfOTcD9vGH1yVIBewokGGDHBl7EQLjzVoAXxsFANq3pP63yCw3t97oJ2BYZsNuEGWDHBjLnBmz+7wYAe+IQDlhPCRsTnsUAdptw3Q2YlhCGgfCZAIfSxXpKWPw6LBCw04QrbsDBupPLBLxqLO2BhpbcVC82KBCw04Q1wBsImDLreXmARTmDMVTWYt/63DxREGCXCatUxJO1tQnRCc8uC7C4GwBWKWF9wrM4wC4TVp3cNrJMOJBKztX+EIBVSlieaBUK2GHCCvCE7cFzjI/4GIBV/ZT4ZQJf5jTADhOWgFnMcAsA0+KIdwZsPKdUELCKqmFD6GsrkQGP0X/4tQDMkmcr6CRIo+WPAdg2VFHUVhRgfIeOkQDM3QHs50jd3AcBbNWXiDnOwgCjSTV211ixhPtLUbq5DwLYSlaIeK4wwGheeCgA56kd4IYpK/bjjwHYKpJEX+YkwOjURiWv68lRAjdMmdb4IIBhtsIqoyoAMLY8fJkn3IWtAsIEH/FBAMN8mywELBAwVkeV9nIvhjMwCYd9BCieuljAFTBhJ6dKiwSMjDbYbc8GSYNweKxxVLryFwGwefB0wKCAWL5SkYCxUK2SxWmaqerfcBZ2wkdNGd0QADtmNI4GDMaC8o0WChjp57pZGGH4Ai1aCwIGFcIkwN8pgB1zcvgmPgTAZqm6KkaVh/AvgD0QsN3PPWa1aaaz7Ug3EezljqiLaP4iANbWXJhzcug+VA2rBQuwuQhB4ZKH8I/uQMB2P7fa8V4ODNomwk2ERstwVw434H8/5fqv3MxAbOxl10V0dY9pENyLjDqThK0l3PtdJOFukDSOaocfGqowSD7HoYDt8Vyb73VijYrzzUBD0xpwRbgbMKomAIzJrOwxNcx3rkPWWlkojV5O7XjnuE18JzcOuOcmbJWqTfm8st2b8S+jDSbUYPmqe88eTD8rBMA8aYAs9tHOBic9mYyFXmqZs2t5Uv7V3gcDtp3EkhVPYSQn26dgPg0WYAO+AcA/CIAz1+iel89QOetOFGCj9ke9Q9cCu3wocjjgGfyvT3gkTJu+sARbPwhwvi+dH3DuZ52VJX3/aQVYfxWNlnsFXssNuOUBbEcSdeYjiIU8QLA8+KCd/35ijw4lsorO2qhsZsKx4LiKd2dqhbPPhOduwE0fYGu4MWU+gjjFCQSXcVmbjHsAS74+wGpnRacXzgKzhYuwAqylhI2Y17tYGQf84gVsFb0vUx9xHGC4Jwd999Vf/6iLnIATPeito+W/8jNYOE4rwNqaQnPU5rDhiRuw1wnbsdq+MiMX8piCfZz1hUY44G//+65fhAMe9sHgtTlHl72qXsx/Wg/1wLus91H79wD2OmHwTeCpRi/P1HJVU6Dd8nyTxs4P2FqfWB9TC3kMwX2RSvQ9DwHAsCh73zvKCYfWGP3BCvgIq04iGVPXDPgAn/up31H+QI0JhBL3z7Q9yX2AS+QhQnFEqhno1e6P8BEAcKm+FDHUzdmEjwBsJitLZcAEE7YIHyEj3V6iLo4pbMLxjPZNBR7p6eCSGTDFhKnfBeGRtoqrVB6YKRxIxMRtsn2S2YjSGTAhFmb6emQiWEgEEuUZJWuiOIl4dswY2QZcOgfBFMhaCq1PMeK8myvXN9JKESIJbsQn9HVZwrKEDjgTyQ2nGh8xTubK+rhSOuBMVMLxV68Vrx7X7Xb7HrrrybrsfA8gHM/unSO7RKw2HD+qOenVNg/RSs33EMIpv/stUsrTMSaGvq4HqdZtOUouOV9yTycNuX0/GHSEBoO2tYWtqdL2b0qkId2xKml8BkQacRyjXskyaE4d6CaouroHpUP6OqJ6pRweO/VSMOKrd7BUJOIrXly7Qrq73jV08KjZOglyr3W1XYKazV3rcDWvbDP9H7+HXzb1HSYEAAAAAElFTkSuQmCC;" vertex="1" parent="1">
          <mxGeometry x="730" y="65.62" width="150" height="58.38" as="geometry" />
        </mxCell>
        <mxCell id="toXp25n7A9kxLXInQJBA-22" value="User" style="rounded=0;whiteSpace=wrap;html=1;" vertex="1" parent="1">
          <mxGeometry x="520.88" y="-210" width="93.25" height="20" as="geometry" />
        </mxCell>
        <mxCell id="toXp25n7A9kxLXInQJBA-23" value="EDA" style="rounded=0;whiteSpace=wrap;html=1;" vertex="1" parent="1">
          <mxGeometry x="414.00000000000006" y="274" width="82.12" height="40" as="geometry" />
        </mxCell>
        <mxCell id="toXp25n7A9kxLXInQJBA-31" value="" style="shape=flexArrow;endArrow=classic;html=1;rounded=0;" edge="1" parent="1">
          <mxGeometry width="50" height="50" relative="1" as="geometry">
            <mxPoint x="567.38" y="-186" as="sourcePoint" />
            <mxPoint x="567.38" y="-136" as="targetPoint" />
          </mxGeometry>
        </mxCell>
        <mxCell id="toXp25n7A9kxLXInQJBA-34" value="" style="shape=flexArrow;endArrow=classic;html=1;rounded=0;" edge="1" parent="1">
          <mxGeometry width="50" height="50" relative="1" as="geometry">
            <mxPoint x="567" y="-4" as="sourcePoint" />
            <mxPoint x="567" y="46" as="targetPoint" />
          </mxGeometry>
        </mxCell>
        <mxCell id="toXp25n7A9kxLXInQJBA-35" value="" style="shape=flexArrow;endArrow=classic;html=1;rounded=0;" edge="1" parent="1">
          <mxGeometry width="50" height="50" relative="1" as="geometry">
            <mxPoint x="567.38" y="178" as="sourcePoint" />
            <mxPoint x="567.38" y="228" as="targetPoint" />
          </mxGeometry>
        </mxCell>
        <mxCell id="toXp25n7A9kxLXInQJBA-37" value="" style="shape=flexArrow;endArrow=classic;html=1;rounded=0;" edge="1" parent="1">
          <mxGeometry width="50" height="50" relative="1" as="geometry">
            <mxPoint x="567.38" y="363" as="sourcePoint" />
            <mxPoint x="567.38" y="413" as="targetPoint" />
          </mxGeometry>
        </mxCell>
      </root>
    </mxGraphModel>
  </diagram>
</mxfile>
